# xmcd
#
# Track frame offsets:
#	150
#	19392
#	53481
#	76075
#	98411
#	131433
#	175203
#	195435
#	238397
#	288367
#
# Disc length: 4260 seconds
#
# Revision: 1
# Processed by: cddbd v1.5.1PL2 Copyright (c) Steve Scherf et al.
# Submitted via: EasyCDDAExtractor 9.0.0.1
#
DISCID=7910a20a
DTITLE=Wasp - Sauna Open Air Metal Festival Tampere 10-06-06
DYEAR=2006
DGENRE=Hard Rock
TTITLE0=Intro The End (The Doors)
TTITLE1=The Medley 1) On Your Knees 2) Chainsaw Charlie (Murders In The New Mo
TTITLE1=rgue)
TTITLE2=Hate To Love Me
TTITLE3=Love Machine
TTITLE4=Wild Child
TTITLE5=The Medley 1) Widowmaker 2) Sleeping (In The Fire)
TTITLE6=Real Me
TTITLE7=The Idol
TTITLE8=I Wanna Be Somebody
TTITLE9=Blind In Texas
EXTD=
EXTT0=
EXTT1=
EXTT2=
EXTT3=
EXTT4=
EXTT5=
EXTT6=
EXTT7=
EXTT8=
EXTT9=
PLAYORDER=
